v 141.4508159514583 0.0 225.0
v 70.72540797572917 122.49999999999999 225.0
v 0.0 0.0 300.0
v -70.72540797572913 122.5 225.0
v -141.4508159514583 1.732272889917348e-14 225.0
v -70.72540797572921 -122.49999999999996 225.0
v 70.72540797572906 -122.50000000000006 225.0
v 0.0 0.0 -300.0
v 70.72540797572917 122.49999999999999 -225.0
v 141.4508159514583 0.0 -225.0
v -70.72540797572913 122.5 -225.0
v -141.4508159514583 1.732272889917348e-14 -225.0
v -70.72540797572921 -122.49999999999996 -225.0
v 70.72540797572906 -122.50000000000006 -225.0
v 0.0 0.0 18.0
v 0.0 0.0 -18.0
v -14.0 -22.5 -22.5
v -14.0 -22.5 22.5
v -14.0 22.5 22.5
v -14.0 22.5 -22.5
v 42.0 22.5 22.5
v 42.0 -22.5 22.5
v 42.0 -22.5 -22.5
v 42.0 22.5 -22.5
v 75.0 -22.5 40.0
v 75.0 -22.5 -40.0
v 75.0 22.5 40.0
v 75.0 22.5 -40.0
v 148.5 -22.5 40.0
v 148.5 -22.5 -40.0
v 148.5 22.5 40.0
v 148.5 22.5 -40.0
f 1 2 3
f 2 4 3
f 4 5 3
f 5 6 3
f 6 7 3
f 7 1 3
f 8 9 10
f 8 11 9
f 8 12 11
f 8 13 12
f 8 14 13
f 8 10 14
f 15 2 1
f 15 4 2
f 15 5 4
f 15 6 5
f 15 7 6
f 15 1 7
f 10 9 16
f 9 11 16
f 11 12 16
f 12 13 16
f 13 14 16
f 14 10 16
f 17 18 19
f 17 19 20
f 21 22 23
f 24 21 23
f 22 18 17
f 23 22 17
f 20 19 21
f 20 21 24
f 17 20 24
f 17 24 23
f 21 19 18
f 22 21 18
f 25 22 23
f 26 25 23
f 24 21 27
f 24 27 28
f 23 24 28
f 23 28 26
f 27 21 22
f 25 27 22
f 29 25 26
f 30 29 26
f 28 27 31
f 28 31 32
f 26 28 32
f 26 32 30
f 31 27 25
f 29 31 25
f 31 29 30
f 32 31 30
